<svg width="22" height="25" viewBox="0 0 22 25" fill="none" xmlns="http://www.w3.org/2000/svg">
<path d="M11.0469 0.5C6.82977 0.5 3.3125 3.89703 3.3125 8.23438C3.3125 9.88447 3.80834 11.3559 4.75995 12.7347L10.455 21.6212C10.7313 22.0532 11.363 22.0524 11.6388 21.6212L17.3585 12.7044C18.2896 11.3881 18.7812 9.84252 18.7812 8.23438C18.7812 3.96964 15.3116 0.5 11.0469 0.5ZM11.0469 11.75C9.10845 11.75 7.53125 10.1728 7.53125 8.23438C7.53125 6.29595 9.10845 4.71875 11.0469 4.71875C12.9853 4.71875 14.5625 6.29595 14.5625 8.23438C14.5625 10.1728 12.9853 11.75 11.0469 11.75Z" fill="#FF4314"/>
<path d="M16.5436 16.6577L13.0031 22.193C12.0867 23.6219 10.002 23.6172 9.08994 22.1944L5.54366 16.6592C2.42347 17.3806 0.5 18.7021 0.5 20.2814C0.5 23.0218 5.93412 24.5001 11.0469 24.5001C16.1596 24.5001 21.5938 23.0218 21.5938 20.2814C21.5938 18.701 19.6676 17.3787 16.5436 16.6577Z" fill="#FF4314"/>
</svg>
