<svg width="45" height="45" viewBox="0 0 45 45" fill="none" xmlns="http://www.w3.org/2000/svg">
<path d="M11.5701 43.7273C11.5704 43.8843 11.5397 44.0398 11.4796 44.1848C11.4196 44.3298 11.3313 44.4614 11.22 44.5721L11.142 44.6501C11.0311 44.7611 10.8995 44.8492 10.7546 44.9092C10.6097 44.9693 10.4544 45.0002 10.2975 45.0002C10.1406 45.0002 9.98531 44.9693 9.8404 44.9092C9.6955 44.8492 9.56385 44.7611 9.45299 44.6501L0.349136 35.5464C0.125555 35.3222 0 35.0185 0 34.7019C0 34.3852 0.125555 34.0815 0.349136 33.8573L0.427169 33.7793C0.538077 33.6683 0.669772 33.5803 0.814726 33.5202C0.95968 33.4601 1.11505 33.4292 1.27196 33.4292C1.42887 33.4292 1.58424 33.4601 1.7292 33.5202C1.87415 33.5803 2.00585 33.6683 2.11675 33.7793L3.4665 35.1291L11.22 42.8825C11.3313 42.9932 11.4196 43.1249 11.4796 43.2699C11.5397 43.4149 11.5704 43.5704 11.5701 43.7273Z" fill="white"/>
<path d="M29.4746 1.24965C29.4743 1.58075 29.3427 1.89823 29.1088 2.13256C28.8749 2.36689 28.5577 2.49897 28.2266 2.49987H15.458C15.1311 2.49291 14.8199 2.35817 14.5912 2.12452C14.3625 1.89087 14.2344 1.57691 14.2344 1.24993C14.2344 0.92296 14.3625 0.608999 14.5912 0.375348C14.8199 0.141697 15.1311 0.00695347 15.458 1.28058e-07H28.2266C28.3907 -7.41882e-05 28.5533 0.0321984 28.7049 0.0949729C28.8566 0.157747 28.9943 0.249793 29.1104 0.365849C29.2265 0.481904 29.3185 0.619694 29.3813 0.771343C29.4441 0.922991 29.4763 1.08552 29.4762 1.24965H29.4746Z" fill="white"/>
<path d="M28.0728 8.19347V24.4259C28.0731 24.6378 28.0042 24.844 27.8768 25.0132C27.7494 25.1825 27.5703 25.3056 27.3666 25.364L27.34 25.3719C27.0892 25.4355 26.8235 25.3971 26.6009 25.2651C26.3784 25.1332 26.2172 24.9185 26.1526 24.6679C26.1402 24.6216 26.1317 24.5743 26.1271 24.5266C26.1237 24.4931 26.122 24.4595 26.122 24.4259V17.9713C26.1248 17.869 26.107 17.7671 26.0698 17.6717C26.0326 17.5764 25.9766 17.4895 25.9052 17.4161C25.8338 17.3427 25.7484 17.2844 25.6541 17.2446C25.5598 17.2048 25.4585 17.1843 25.3561 17.1843C25.2537 17.1843 25.1524 17.2048 25.0581 17.2446C24.9638 17.2844 24.8784 17.3427 24.807 17.4161C24.7356 17.4895 24.6797 17.5764 24.6424 17.6717C24.6052 17.7671 24.5874 17.869 24.5902 17.9713V27.1554C24.5899 27.4144 24.4869 27.6628 24.3037 27.846C24.1205 28.0291 23.8721 28.1322 23.6131 28.1325C23.5156 28.1324 23.4186 28.1179 23.3253 28.0895C23.1978 28.0507 23.0795 27.9862 22.9778 27.9001C22.8761 27.8139 22.7931 27.7079 22.7338 27.5885C22.7304 27.5812 22.727 27.5738 22.7231 27.567C22.7047 27.528 22.6892 27.4878 22.6767 27.4466C22.6483 27.3531 22.6338 27.2559 22.6337 27.1582V17.9713C22.6365 17.869 22.6187 17.7671 22.5815 17.6717C22.5443 17.5764 22.4883 17.4895 22.4169 17.4161C22.3455 17.3427 22.2601 17.2844 22.1658 17.2446C22.0715 17.2048 21.9702 17.1843 21.8678 17.1843C21.7654 17.1843 21.6641 17.2048 21.5698 17.2446C21.4755 17.2844 21.3901 17.3427 21.3187 17.4161C21.2473 17.4895 21.1913 17.5764 21.1541 17.6717C21.1169 17.7671 21.0991 17.869 21.1019 17.9713V27.6841C21.1022 27.7687 21.0912 27.8529 21.0691 27.9346C21.0691 27.9397 21.0663 27.9453 21.0646 27.9504L21.0612 27.9634V27.9708C21.0136 28.1242 20.9291 28.2637 20.815 28.3769C20.7009 28.4901 20.5608 28.5735 20.4069 28.6199L20.3934 28.6239C20.248 28.6652 20.0951 28.6723 19.9465 28.6446C19.7979 28.6168 19.6579 28.5549 19.5373 28.4638C19.4167 28.3727 19.3189 28.2549 19.2516 28.1196C19.1843 27.9843 19.1493 27.8352 19.1494 27.6841V17.9713C19.1522 17.869 19.1344 17.7671 19.0972 17.6717C19.0599 17.5764 19.004 17.4895 18.9326 17.4161C18.8612 17.3427 18.7758 17.2844 18.6815 17.2446C18.5872 17.2048 18.4858 17.1843 18.3835 17.1843C18.2811 17.1843 18.1798 17.2048 18.0855 17.2446C17.9911 17.2844 17.9058 17.3427 17.8344 17.4161C17.763 17.4895 17.707 17.5764 17.6698 17.6717C17.6325 17.7671 17.6148 17.869 17.6176 17.9713V26.6391C17.6182 26.7671 17.5936 26.8939 17.545 27.0123C17.4965 27.1306 17.4251 27.2383 17.3348 27.329C17.2736 27.3906 17.2041 27.4435 17.1284 27.4862L17.1149 27.4941C16.9706 27.5751 16.8076 27.6172 16.6421 27.6162C16.3831 27.6159 16.1347 27.5129 15.9516 27.3297C15.7684 27.1465 15.6653 26.8982 15.665 26.6391V13.6275C15.6657 13.4694 15.6174 13.3151 15.5269 13.1855C15.4364 13.056 15.308 12.9576 15.1594 12.9039C15.0108 12.8501 14.8492 12.8436 14.6968 12.8853C14.5444 12.927 14.4085 13.0148 14.3079 13.1367L11.7888 16.155C11.6721 16.2959 11.5238 16.4073 11.356 16.4802C11.1883 16.5531 11.0056 16.5854 10.823 16.5746C10.651 16.567 10.4831 16.5193 10.3327 16.4353C10.1823 16.3514 10.0536 16.2336 9.95675 16.0912L9.93809 16.0617L9.92621 16.0437C9.80708 15.8488 9.74593 15.6241 9.74994 15.3957C9.75395 15.1674 9.82294 14.945 9.94883 14.7544C10.2434 14.3083 10.5307 13.8802 10.6545 13.7044L11.0294 13.2107C12.2989 11.5364 13.6011 9.71624 15.0091 7.64668C15.2076 7.35547 15.3987 7.02468 15.6011 6.67467C16.1072 5.79765 16.6755 4.8115 17.5802 4.03174H26.2278C27.3926 4.97039 28.0129 6.37102 28.0728 8.19347Z" fill="white"/>
<path d="M21.0363 32.7735L15.099 38.7107C13.7702 39.9547 12.343 40.5049 10.8536 40.3505L4.73987 34.2352C4.64996 33.0421 4.94513 31.9411 5.20807 30.9629C5.31211 30.5733 5.41107 30.2052 5.47722 29.8591C5.94259 27.4073 6.30901 25.1998 6.59683 23.1093L6.68278 22.4958C6.71953 22.286 6.81849 21.7805 6.92649 21.2518C6.97228 21.0282 7.08085 20.8222 7.23948 20.6581C7.39811 20.494 7.60024 20.3784 7.82217 20.325L7.86741 20.3154C8.03809 20.2817 8.21431 20.2887 8.3818 20.3357C8.54929 20.3828 8.70335 20.4686 8.83151 20.5863C8.96814 20.7077 9.07428 20.8596 9.14137 21.0296C9.20846 21.1996 9.23462 21.3831 9.21772 21.5651L8.86374 25.4808C8.84967 25.6375 8.88419 25.7948 8.9626 25.9312C9.04101 26.0676 9.15952 26.1765 9.30202 26.2433C9.44451 26.31 9.60409 26.3312 9.75907 26.304C9.91405 26.2769 10.0569 26.2027 10.1683 26.0915L14.131 22.1288V26.6394C14.1317 27.3048 14.3964 27.9426 14.8668 28.4131C15.3373 28.8835 15.9751 29.1482 16.6405 29.1489C16.8699 29.1492 17.0983 29.1174 17.319 29.0545L21.0363 32.7735Z" fill="white"/>
<path d="M43.8897 35.5439L34.7859 44.6477C34.675 44.7587 34.5434 44.8467 34.3985 44.9068C34.2536 44.9669 34.0982 44.9978 33.9414 44.9978C33.7845 44.9978 33.6292 44.9669 33.4843 44.9068C33.3394 44.8467 33.2077 44.7587 33.0969 44.6477L33.0188 44.5697C32.9078 44.4588 32.8198 44.3271 32.7597 44.1821C32.6996 44.0372 32.6687 43.8818 32.6687 43.7249C32.6687 43.568 32.6996 43.4126 32.7597 43.2677C32.8198 43.1227 32.9078 42.991 33.0188 42.8801L40.7893 35.1119L42.1244 33.7769C42.2353 33.6659 42.367 33.5778 42.5119 33.5178C42.6569 33.4577 42.8123 33.4268 42.9692 33.4268C43.1261 33.4268 43.2814 33.4577 43.4264 33.5178C43.5714 33.5778 43.703 33.6659 43.814 33.7769L43.892 33.8549C44.1153 34.0794 44.2404 34.3833 44.24 34.6999C44.2396 35.0165 44.1136 35.32 43.8897 35.5439Z" fill="white"/>
<path d="M39.499 34.2365L33.3864 40.3491C31.897 40.5057 30.4698 39.9533 29.1415 38.7093L22.6619 32.232L20.5811 30.1511C20.6512 30.1387 20.7207 30.1229 20.7891 30.1036L20.7993 30.1008L20.8146 30.0968L20.8383 30.0895C20.8483 30.0869 20.8581 30.0837 20.8677 30.0799C21.3735 29.9221 21.8166 29.6086 22.1338 29.1842C22.508 29.4567 22.9504 29.6204 23.4119 29.6571C23.8734 29.6938 24.336 29.6021 24.7486 29.3922C25.1612 29.1822 25.5077 28.8622 25.7497 28.4675C25.9917 28.0728 26.1197 27.6189 26.1197 27.1559V26.7369C26.6408 26.9571 27.2211 26.9948 27.7663 26.8438L27.7844 26.8393L27.8025 26.8336L27.8161 26.8297C28.3334 26.6752 28.7869 26.3578 29.1094 25.9248C29.4318 25.4918 29.6059 24.9663 29.6057 24.4265V21.6235L34.0729 26.0906C34.1842 26.202 34.3271 26.2764 34.4822 26.3037C34.6372 26.3309 34.797 26.3098 34.9396 26.243C35.0822 26.1763 35.2008 26.0672 35.2792 25.9307C35.3577 25.7941 35.3921 25.6368 35.3779 25.4799L35.0239 21.5642C35.0069 21.3825 35.0328 21.1993 35.0996 21.0295C35.1664 20.8596 35.2722 20.7079 35.4085 20.5865C35.5363 20.4692 35.6899 20.3837 35.8569 20.3367C36.0238 20.2897 36.1995 20.2827 36.3697 20.3162L36.4184 20.327C36.6411 20.3799 36.844 20.4956 37.0031 20.6602C37.1623 20.8248 37.2709 21.0316 37.3163 21.256C37.4249 21.787 37.5238 22.2925 37.5595 22.4966L37.6437 23.1118C37.9293 25.1915 38.2957 27.3991 38.7633 29.8605C38.8289 30.2065 38.9279 30.5752 39.0325 30.9659C39.2948 31.9431 39.5928 33.044 39.499 34.2365Z" fill="white"/>
</svg>
