<svg width="16" height="16" viewBox="0 0 16 16" fill="none" xmlns="http://www.w3.org/2000/svg">
<g clip-path="url(#clip0_397_151)">
<path fill-rule="evenodd" clip-rule="evenodd" d="M5.61605 13.4846L5.18404 13.0548C4.96354 12.9761 4.06802 12.5936 2.64375 11.0703L1.28698 9.71351C0.778472 9.205 1.10248 8.33424 1.81574 8.27799C1.61323 7.74248 1.98899 7.16647 2.55825 7.13722C2.45925 6.83571 2.538 6.50496 2.763 6.27771C2.9115 6.1292 3.10501 6.0482 3.30301 6.0347C3.12526 5.52394 3.48526 4.91418 4.09952 4.91418C4.32453 4.91418 4.53603 5.00194 4.69578 5.16169L5.66105 6.12695L6.30456 6.77046C6.86707 6.47796 7.62308 6.43296 8.04833 6.88297C8.79085 7.67048 8.61084 8.28024 8.45334 8.82025C8.32509 9.25 8.21709 9.62351 8.55234 10.105L8.7751 10.3255L5.61605 13.4846Z" fill="#FF4314"/>
<path fill-rule="evenodd" clip-rule="evenodd" d="M7.4812 16C7.29894 16 7.10769 15.9123 6.95469 15.7615L5.89042 14.6973C5.65642 14.4632 5.54842 14.0762 5.78017 13.8445L9.11697 10.5099C9.34423 10.2804 9.73123 10.3817 9.96974 10.6202L11.034 11.6845C11.268 11.9185 11.376 12.3055 11.1443 12.5372L7.80745 15.8718C7.72645 15.955 7.60945 16 7.4812 16Z" fill="#FF4314"/>
<path fill-rule="evenodd" clip-rule="evenodd" d="M3.53705 14.4205C3.29404 14.4205 3.11629 14.1865 3.17929 13.9525L4.58781 8.69419C4.62157 8.56593 4.71607 8.46693 4.84882 8.43318C5.12107 8.36568 5.37983 8.60193 5.30333 8.88769L3.8948 14.1438C3.85205 14.3058 3.7058 14.4205 3.53705 14.4205ZM5.60258 6.71416C5.35958 6.71416 5.17957 6.4824 5.24258 6.2484L6.8446 0.274555C6.87835 0.144053 6.97285 0.0450514 7.1056 0.0113008C7.37786 -0.0562002 7.63661 0.182303 7.56011 0.465808L5.96034 6.43965C5.91534 6.60165 5.76908 6.71416 5.60258 6.71416Z" fill="#FF4314"/>
<path fill-rule="evenodd" clip-rule="evenodd" d="M13.0279 6.70065C10.6181 6.70065 8.65383 5.17738 6.7998 4.73862L7.91807 0.562554C7.94282 0.470303 7.94957 0.380301 7.94057 0.2948C10.0241 0.771807 12.1391 2.53358 14.7537 2.21633C14.9382 2.19383 15.0372 2.42783 14.8909 2.54484L12.8074 4.21661L13.8514 6.39465C13.9054 6.5094 13.8334 6.64215 13.7074 6.6579C13.4824 6.6849 13.2552 6.70065 13.0279 6.70065Z" fill="#FF4314"/>
</g>
<defs>
<clipPath id="clip0_397_151">
<rect width="16" height="16" fill="white"/>
</clipPath>
</defs>
</svg>
