<svg width="35" height="25" viewBox="0 0 35 25" fill="none" xmlns="http://www.w3.org/2000/svg">
<path d="M22.6172 13.9165L19.7585 16.7849C18.5992 17.9482 16.5595 17.9733 15.3751 16.7849L12.5163 13.9165L2.24854 24.2176C2.63074 24.3943 3.05214 24.4998 3.50014 24.4998H31.6335C32.0815 24.4998 32.5027 24.3944 32.8848 24.2176L22.6172 13.9165Z" fill="#FF4314"/>
<path d="M31.6333 0.5H3.5C3.052 0.5 2.6306 0.605467 2.24854 0.7822L13.2203 11.7904C13.2211 11.7911 13.2219 11.7913 13.2227 11.792C13.2234 11.7927 13.2235 11.7937 13.2235 11.7937L16.7911 15.3731C17.17 15.752 17.9635 15.752 18.3424 15.3731L21.9092 11.7943C21.9092 11.7943 21.9101 11.7927 21.9108 11.792C21.9108 11.792 21.9124 11.7911 21.9131 11.7904L32.8847 0.782133C32.5026 0.605333 32.0813 0.5 31.6333 0.5Z" fill="#FF4314"/>
<path d="M0.819067 2.18066C0.621333 2.58053 0.5 3.0244 0.5 3.49986V21.4999C0.5 21.9753 0.6212 22.4192 0.819 22.8191L11.1045 12.5002L0.819067 2.18066Z" fill="#FF4314"/>
<path d="M34.3142 2.18066L24.0288 12.5003L34.3142 22.8193C34.5119 22.4195 34.6333 21.9756 34.6333 21.5V3.5C34.6333 3.0244 34.5119 2.58053 34.3142 2.18066Z" fill="#FF4314"/>
</svg>
