<svg width="37" height="30" viewBox="0 0 37 30" fill="none" xmlns="http://www.w3.org/2000/svg">
<path d="M36.5188 7.34348L36.9492 9.26087C37.0144 9.55174 37.0144 9.84 36.9596 10.1113C36.9857 10.2157 36.9992 10.3235 37.0001 10.4348C37.0001 10.7807 36.8626 11.1125 36.618 11.3571C36.3734 11.6017 36.0416 11.7391 35.6957 11.7391H32.7544L30.8201 9.16043V9.15783C30.5108 8.74339 30.1089 8.40709 29.6464 8.17584C29.1839 7.94459 28.6737 7.82481 28.1566 7.82609H27.8696V5.62174C27.8696 4.68 27.1027 3.91304 26.1609 3.91304H24.3609C23.4192 3.91304 22.6522 4.68 22.6522 5.62174V7.81304H14.8261V5.62174C14.8261 4.68 14.0592 3.91304 13.1174 3.91304H11.3174C10.3757 3.91304 9.60875 4.68 9.60875 5.62174V7.82609H9.32179C8.26788 7.82609 7.2831 8.32304 6.64788 9.16956L4.72266 11.7391H1.78266C1.5838 11.7392 1.38755 11.6938 1.20894 11.6063C1.03032 11.5189 0.874055 11.3918 0.752094 11.2347C0.630133 11.0776 0.545703 10.8948 0.50526 10.7C0.464817 10.5053 0.469431 10.304 0.51875 10.1113C0.459827 9.83049 0.46339 9.54015 0.529185 9.26087L0.946576 7.34348C1.41177 5.26142 2.57201 3.3998 4.23629 2.06506C5.90057 0.730313 7.9697 0.00199783 10.1031 0H27.3753C29.5077 0.000207589 31.5762 0.728125 33.2387 2.0634C34.9013 3.39868 36.0584 5.26136 36.5188 7.34348Z" fill="white"/>
<path d="M29.7742 9.93927L34.5481 16.3045C36.1397 18.4219 37.0003 20.9991 37.0003 23.648V27.9654C37.0003 29.0871 36.0872 30.0001 34.9655 30.0001H2.5133C1.39156 30.0001 0.478516 29.0871 0.478516 27.9654V23.648C0.478516 21.0001 1.33939 18.4175 2.93069 16.3045L7.69156 9.95231C8.08286 9.43057 8.68286 9.13057 9.32199 9.13057H10.509C10.7307 9.13057 10.9133 8.94796 10.9133 8.72622V5.62188C10.9133 5.40014 11.0959 5.21753 11.3176 5.21753H13.1176C13.3394 5.21753 13.522 5.40014 13.522 5.62188V8.72622C13.522 8.94796 13.7046 9.13057 13.9263 9.13057H23.5524C23.7742 9.13057 23.9568 8.94796 23.9568 8.72622V5.62188C23.9568 5.40014 24.1394 5.21753 24.3611 5.21753H26.1611C26.3829 5.21753 26.5655 5.40014 26.5655 5.62188V8.72622C26.5655 8.94796 26.7481 9.13057 26.9698 9.13057H28.1568C28.7959 9.13057 29.3959 9.43057 29.7742 9.93927ZM15.7368 15.6523C15.9585 15.6523 16.1424 15.4697 16.1294 15.2454V13.4506C16.129 13.343 16.0862 13.2399 16.0103 13.1636C15.9343 13.0874 15.8313 13.0443 15.7237 13.0436H13.929C13.8211 13.044 13.7178 13.0869 13.6416 13.1632C13.5653 13.2394 13.5223 13.3427 13.522 13.4506V15.2454C13.522 15.4684 13.7046 15.6523 13.942 15.6523H15.7368ZM19.6498 15.6523C19.7028 15.6527 19.7553 15.6424 19.8041 15.6219C19.8529 15.6014 19.8971 15.5712 19.9339 15.5332C19.9707 15.4951 19.9995 15.45 20.0183 15.4005C20.0372 15.3511 20.0459 15.2983 20.0437 15.2454V13.4506C20.043 13.3429 20 13.2397 19.9238 13.1636C19.8476 13.0874 19.7445 13.0443 19.6368 13.0436H17.842C17.7342 13.044 17.6309 13.0869 17.5546 13.1632C17.4784 13.2394 17.4354 13.3427 17.435 13.4506V15.2454C17.435 15.4684 17.6176 15.6523 17.855 15.6523H19.6498ZM21.7681 15.6523H23.5629C23.6158 15.6527 23.6683 15.6424 23.7171 15.6219C23.766 15.6014 23.8101 15.5712 23.8469 15.5332C23.8838 15.4951 23.9125 15.45 23.9314 15.4005C23.9503 15.3511 23.9589 15.2983 23.9568 15.2454V13.4506C23.9561 13.3429 23.913 13.2397 23.8368 13.1636C23.7607 13.0874 23.6575 13.0443 23.5498 13.0436H21.755C21.6472 13.044 21.5439 13.0869 21.4677 13.1632C21.3914 13.2394 21.3484 13.3427 21.3481 13.4506V15.2454C21.3481 15.4684 21.5307 15.6523 21.7681 15.6523ZM15.7368 19.5654C15.9585 19.5654 16.1424 19.3827 16.1294 19.1584V17.3636C16.129 17.256 16.0862 17.1529 16.0103 17.0767C15.9343 17.0005 15.8313 16.9573 15.7237 16.9567H13.929C13.8211 16.957 13.7178 17 13.6416 17.0762C13.5653 17.1525 13.5223 17.2558 13.522 17.3636V19.1584C13.522 19.3814 13.7046 19.5654 13.942 19.5654H15.7368ZM17.855 19.5654H19.6498C19.7028 19.5658 19.7553 19.5554 19.8041 19.5349C19.8529 19.5144 19.8971 19.4843 19.9339 19.4462C19.9707 19.4082 19.9995 19.363 20.0183 19.3136C20.0372 19.2641 20.0459 19.2113 20.0437 19.1584V17.3636C20.043 17.2559 20 17.1528 19.9238 17.0766C19.8476 17.0004 19.7445 16.9573 19.6368 16.9567H17.842C17.7342 16.957 17.6309 17 17.5546 17.0762C17.4784 17.1525 17.4354 17.2558 17.435 17.3636V19.1584C17.435 19.3814 17.6176 19.5654 17.855 19.5654ZM23.5629 19.5654C23.6158 19.5658 23.6683 19.5554 23.7171 19.5349C23.766 19.5144 23.8101 19.4843 23.8469 19.4462C23.8838 19.4082 23.9125 19.363 23.9314 19.3136C23.9503 19.2641 23.9589 19.2113 23.9568 19.1584V17.3636C23.9561 17.2559 23.913 17.1528 23.8368 17.0766C23.7607 17.0004 23.6575 16.9573 23.5498 16.9567H21.755C21.6472 16.957 21.5439 17 21.4677 17.0762C21.3914 17.1525 21.3484 17.2558 21.3481 17.3636V19.1584C21.3481 19.3814 21.5307 19.5654 21.7681 19.5654H23.5629ZM13.942 23.4784H15.7368C15.9585 23.4784 16.1424 23.2958 16.1294 23.0714V21.2767C16.129 21.1691 16.0862 21.0659 16.0103 20.9897C15.9343 20.9135 15.8313 20.8704 15.7237 20.8697H13.929C13.8211 20.87 13.7178 20.913 13.6416 20.9893C13.5653 21.0655 13.5223 21.1688 13.522 21.2767V23.0714C13.522 23.2945 13.7046 23.4784 13.942 23.4784ZM19.6498 23.4784C19.7028 23.4788 19.7553 23.4684 19.8041 23.448C19.8529 23.4275 19.8971 23.3973 19.9339 23.3593C19.9707 23.3212 19.9995 23.2761 20.0183 23.2266C20.0372 23.1771 20.0459 23.1243 20.0437 23.0714V21.2767C20.043 21.1689 20 21.0658 19.9238 20.9897C19.8476 20.9135 19.7445 20.8704 19.6368 20.8697H17.842C17.7342 20.87 17.6309 20.913 17.5546 20.9893C17.4784 21.0655 17.4354 21.1688 17.435 21.2767V23.0714C17.435 23.2945 17.6176 23.4784 17.855 23.4784H19.6498ZM21.7681 23.4784H23.5629C23.6158 23.4788 23.6683 23.4684 23.7171 23.448C23.766 23.4275 23.8101 23.3973 23.8469 23.3593C23.8838 23.3212 23.9125 23.2761 23.9314 23.2266C23.9503 23.1771 23.9589 23.1243 23.9568 23.0714V21.2767C23.9561 21.1689 23.913 21.0658 23.8368 20.9897C23.7607 20.9135 23.6575 20.8704 23.5498 20.8697H21.755C21.6472 20.87 21.5439 20.913 21.4677 20.9893C21.3914 21.0655 21.3484 21.1688 21.3481 21.2767V23.0714C21.3481 23.2945 21.5307 23.4784 21.7681 23.4784Z" fill="white"/>
</svg>
