<svg xmlns="http://www.w3.org/2000/svg" width="16" height="16" viewBox="0 0 16 16" fill="none">
    <path
        d="M8.00011 5.17566C7.25118 5.17566 6.53292 5.47317 6.00335 6.00274C5.47378 6.53231 5.17627 7.25057 5.17627 7.9995C5.17627 8.74842 5.47378 9.46668 6.00335 9.99625C6.53292 10.5258 7.25118 10.8233 8.00011 10.8233C8.74903 10.8233 9.46729 10.5258 9.99686 9.99625C10.5264 9.46668 10.8239 8.74842 10.8239 7.9995C10.8239 7.25057 10.5264 6.53231 9.99686 6.00274C9.46729 5.47317 8.74903 5.17566 8.00011 5.17566Z"
        fill="white" />
    <path fill-rule="evenodd" clip-rule="evenodd"
        d="M3.45567 0.250933C6.4759 -0.0836444 9.52385 -0.0836444 12.5441 0.250933C14.1941 0.435134 15.5243 1.7341 15.7181 3.39017C16.076 6.45266 16.076 9.54642 15.7181 12.6089C15.5243 14.265 14.1941 15.5639 12.5449 15.749C9.52443 16.0837 6.47619 16.0837 3.45567 15.749C1.80568 15.5639 0.475436 14.265 0.281677 12.6098C-0.0763142 9.547 -0.0763142 6.45295 0.281677 3.39017C0.475436 1.7341 1.80568 0.435134 3.45567 0.250933ZM12.3442 2.7863C12.1138 2.7863 11.8928 2.87785 11.7299 3.04079C11.5669 3.20374 11.4754 3.42474 11.4754 3.65518C11.4754 3.88562 11.5669 4.10662 11.7299 4.26956C11.8928 4.43251 12.1138 4.52405 12.3442 4.52405C12.5747 4.52405 12.7957 4.43251 12.9586 4.26956C13.1216 4.10662 13.2131 3.88562 13.2131 3.65518C13.2131 3.42474 13.1216 3.20374 12.9586 3.04079C12.7957 2.87785 12.5747 2.7863 12.3442 2.7863ZM3.87273 7.99954C3.87273 6.90495 4.30755 5.8552 5.08154 5.08121C5.85553 4.30722 6.90529 3.8724 7.99987 3.8724C9.09446 3.8724 10.1442 4.30722 10.9182 5.08121C11.6922 5.8552 12.127 6.90495 12.127 7.99954C12.127 9.09413 11.6922 10.1439 10.9182 10.9179C10.1442 11.6919 9.09446 12.1267 7.99987 12.1267C6.90529 12.1267 5.85553 11.6919 5.08154 10.9179C4.30755 10.1439 3.87273 9.09413 3.87273 7.99954Z"
        fill="white" />
</svg>