<svg width="14" height="16" viewBox="0 0 14 16" fill="none" xmlns="http://www.w3.org/2000/svg">
<path d="M10.6246 6.99974C9.10843 6.99974 7.87473 8.23344 7.87473 9.74963C7.87473 11.2658 9.10843 12.4995 10.6246 12.4995C12.1408 12.4995 13.3745 11.2658 13.3745 9.74963C13.3745 8.23344 12.1408 6.99974 10.6246 6.99974ZM11.7905 9.3084C10.9911 10.5076 11.2178 10.1676 10.7906 10.8083C10.6371 11.0385 10.3264 11.0996 10.0971 10.9468L9.34717 10.4468C9.11749 10.2937 9.05562 9.98337 9.20874 9.75338C9.36186 9.5237 9.67216 9.46183 9.90215 9.61495L10.2359 9.83744C11.0333 8.64152 10.9904 8.67461 11.1246 8.59811C11.58 8.33469 12.0832 8.86885 11.7905 9.3084ZM8.37471 12.7476V15.4994C8.37471 15.8825 8.78963 16.1239 9.12281 15.9335L10.6246 15.0754L12.1264 15.9335C12.4583 16.1236 12.8745 15.8836 12.8745 15.4994V12.7476C11.5425 13.7499 9.70869 13.7513 8.37471 12.7476ZM11.6246 6.13539V1.0859C11.6246 0.487169 11.1374 0 10.5387 0H1.7109C1.11217 0 0.625 0.487169 0.625 1.0859V12.6636C0.625 13.2623 1.11217 13.7495 1.7109 13.7495H7.37475C7.37475 11.5979 7.3714 11.7311 7.38256 11.6321C5.70881 8.76258 8.37399 5.23268 11.6246 6.13539ZM3.62489 2.49991H7.87473C8.15097 2.49991 8.37471 2.72365 8.37471 2.99989C8.37471 3.27613 8.15097 3.49987 7.87473 3.49987H3.62489C3.34865 3.49987 3.12491 3.27613 3.12491 2.99989C3.12491 2.72365 3.34865 2.49991 3.62489 2.49991ZM6.12479 7.49972H3.62489C3.34865 7.49972 3.12491 7.27598 3.12491 6.99974C3.12491 6.7235 3.34865 6.49975 3.62489 6.49975H6.12479C6.40103 6.49975 6.62477 6.7235 6.62477 6.99974C6.62477 7.27598 6.40103 7.49972 6.12479 7.49972ZM3.62489 5.49979C3.34865 5.49979 3.12491 5.27605 3.12491 4.99981C3.12491 4.72357 3.34865 4.49983 3.62489 4.49983H7.87473C8.15097 4.49983 8.37471 4.72357 8.37471 4.99981C8.37471 5.27605 8.15097 5.49979 7.87473 5.49979H3.62489Z" fill="#FF4314"/>
</svg>
