<svg width="16" height="16" viewBox="0 0 16 16" fill="none" xmlns="http://www.w3.org/2000/svg">
<path d="M15.5672 6.87416L14.1027 6.50781C13.9506 5.8803 13.7054 5.28767 13.3711 4.73828L14.1468 3.44531C14.2818 3.22042 14.2464 2.93248 14.0608 2.74721L13.2528 1.93917C13.0678 1.75391 12.7804 1.71875 12.5547 1.85324L11.2617 2.62891C10.7123 2.29464 10.1197 2.04939 9.49219 1.89732L9.12584 0.432757C9.06222 0.178571 8.83371 0 8.57143 0H7.42857C7.1663 0 6.93778 0.178571 6.87416 0.432757L6.50781 1.89732C5.8803 2.04939 5.28767 2.29464 4.73828 2.62891L3.44531 1.85324C3.22042 1.71875 2.93276 1.75391 2.74721 1.93917L1.93917 2.74721C1.75363 2.93248 1.71819 3.22042 1.85324 3.44531L2.62891 4.73828C2.29464 5.28767 2.04939 5.8803 1.89732 6.50781L0.432757 6.87416C0.178571 6.93778 0 7.16629 0 7.42857V8.57143C0 8.8337 0.178571 9.06222 0.432757 9.12584L1.89732 9.49219C1.94228 9.67763 1.99791 9.85899 2.05901 10.0381C2.3719 9.8351 2.74295 9.71428 3.14286 9.71428C4.24554 9.71428 5.14286 10.6116 5.14286 11.7143C5.14286 12.1863 4.97154 12.615 4.69692 12.9575C4.98594 13.1511 5.22084 13.4132 5.39652 13.7146C5.41364 13.7224 5.43059 13.7305 5.44779 13.7381C5.64418 13.392 5.92428 13.1039 6.2657 12.9002C5.92676 12.5014 5.71429 11.9918 5.71429 11.4286C5.71429 11.1618 5.7689 10.9094 5.85327 10.6712C5.0723 10.0428 4.57143 9.08046 4.57143 8C4.57143 6.10644 6.10645 4.57143 8 4.57143C9.89355 4.57143 11.4286 6.10644 11.4286 8C11.4286 9.08046 10.9277 10.0428 10.1467 10.6712C10.2311 10.9094 10.2857 11.1618 10.2857 11.4286C10.2857 11.9918 10.0732 12.5014 9.73431 12.9002C10.0757 13.1039 10.3558 13.392 10.5522 13.7381C10.5694 13.7305 10.5864 13.7224 10.6035 13.7146C10.7792 13.4132 11.0141 13.1511 11.3031 12.9575C11.0285 12.615 10.8571 12.1863 10.8571 11.7143C10.8571 10.6116 11.7545 9.71428 12.8571 9.71428C13.257 9.71428 13.6281 9.8351 13.941 10.0381C14.0021 9.85899 14.0577 9.67763 14.1027 9.49219L15.5672 9.12584C15.8214 9.06222 16 8.8337 16 8.57143V7.42857C16 7.16629 15.8214 6.93778 15.5672 6.87416Z" fill="#FF4314"/>
<path d="M7.99993 13.1428C8.9467 13.1428 9.71422 12.3753 9.71422 11.4285C9.71422 10.4817 8.9467 9.71423 7.99993 9.71423C7.05316 9.71423 6.28564 10.4817 6.28564 11.4285C6.28564 12.3753 7.05316 13.1428 7.99993 13.1428Z" fill="#FF4314"/>
<path d="M8.5715 13.1428H8.00007H7.42864C6.48333 13.1428 5.71436 13.9118 5.71436 14.8571V15.4285C5.71436 15.7441 5.96994 16 6.28578 16H9.71436C10.0302 16 10.2858 15.7441 10.2858 15.4285V14.8571C10.2858 13.9118 9.51681 13.1428 8.5715 13.1428Z" fill="#FF4314"/>
<path d="M3.14293 13.1429C3.93191 13.1429 4.5715 12.5033 4.5715 11.7143C4.5715 10.9254 3.93191 10.2858 3.14293 10.2858C2.35395 10.2858 1.71436 10.9254 1.71436 11.7143C1.71436 12.5033 2.35395 13.1429 3.14293 13.1429Z" fill="#FF4314"/>
<path d="M3.42878 13.1428H3.14307H2.85735C1.91204 13.1428 1.14307 13.9118 1.14307 14.8571V15.4285C1.14307 15.7441 1.39865 16 1.7145 16H4.57164C4.88749 16 5.14307 15.7441 5.14307 15.4285V14.8571C5.14307 13.9118 4.37409 13.1428 3.42878 13.1428Z" fill="#FF4314"/>
<path d="M12.8573 13.1429C13.6463 13.1429 14.2859 12.5033 14.2859 11.7143C14.2859 10.9254 13.6463 10.2858 12.8573 10.2858C12.0683 10.2858 11.4287 10.9254 11.4287 11.7143C11.4287 12.5033 12.0683 13.1429 12.8573 13.1429Z" fill="#FF4314"/>
<path d="M13.1426 13.1428H12.8569H12.5712C11.6259 13.1428 10.8569 13.9118 10.8569 14.8571V15.4285C10.8569 15.7441 11.1125 16 11.4284 16H14.2855C14.6014 16 14.8569 15.7441 14.8569 15.4285V14.8571C14.8569 13.9118 14.088 13.1428 13.1426 13.1428Z" fill="#FF4314"/>
<path d="M6.1198 10.134C6.53247 9.53645 7.22049 9.14282 8.00021 9.14282C8.77992 9.14282 9.46795 9.53645 9.88062 10.134C10.4745 9.61 10.8574 8.8523 10.8574 7.99997C10.8574 6.42463 9.57554 5.14282 8.00021 5.14282C6.42487 5.14282 5.14307 6.42463 5.14307 7.99997C5.14307 8.8523 5.52588 9.61 6.1198 10.134Z" fill="#FF4314"/>
</svg>
