<svg width="16" height="16" viewBox="0 0 16 16" fill="none" xmlns="http://www.w3.org/2000/svg">
<path d="M4.24903 15.5474C4.24917 15.6032 4.23824 15.6585 4.21688 15.7101C4.19552 15.7616 4.16415 15.8084 4.12458 15.8478L4.09684 15.8755C4.05742 15.915 4.01061 15.9463 3.95909 15.9677C3.90757 15.989 3.85234 16 3.79657 16C3.74079 16 3.68557 15.989 3.63405 15.9677C3.58252 15.9463 3.53572 15.915 3.4963 15.8755L0.259391 12.6386C0.179896 12.5589 0.135254 12.4509 0.135254 12.3384C0.135254 12.2258 0.179896 12.1178 0.259391 12.0381L0.287136 12.0104C0.326569 11.9709 0.373394 11.9396 0.424933 11.9182C0.476472 11.8969 0.531715 11.8859 0.587505 11.8859C0.643295 11.8859 0.698538 11.8969 0.750077 11.9182C0.801615 11.9396 0.84844 11.9709 0.887874 12.0104L1.36778 12.4903L4.12458 15.2471C4.16415 15.2864 4.19552 15.3332 4.21688 15.3848C4.23824 15.4363 4.24917 15.4916 4.24903 15.5474Z" fill="#FF4314"/>
<path d="M10.615 0.444321C10.6149 0.562044 10.5681 0.674927 10.485 0.758245C10.4018 0.841563 10.289 0.888524 10.1713 0.888843H5.63136C5.51513 0.886371 5.40449 0.838462 5.32316 0.755386C5.24183 0.67231 5.19629 0.560679 5.19629 0.444422C5.19629 0.328164 5.24183 0.216533 5.32316 0.133457C5.40449 0.0503813 5.51513 0.00247235 5.63136 4.55317e-08H10.1713C10.2296 -2.63781e-05 10.2874 0.0114483 10.3413 0.0337682C10.3953 0.0560881 10.4443 0.0888155 10.4855 0.13008C10.5268 0.171344 10.5595 0.220336 10.5818 0.274256C10.6041 0.328175 10.6156 0.385965 10.6156 0.444321H10.615Z" fill="#FF4314"/>
<path d="M10.1167 2.91345V8.685C10.1167 8.76033 10.0923 8.83363 10.0469 8.89382C10.0016 8.954 9.93796 8.99778 9.86554 9.01854L9.85609 9.02135C9.76692 9.04394 9.67243 9.03029 9.59331 8.98338C9.51418 8.93646 9.45686 8.86012 9.43388 8.77105C9.4295 8.75457 9.42648 8.73776 9.42484 8.72078C9.42362 8.70889 9.42302 8.69695 9.42303 8.685V6.39001C9.42402 6.35362 9.4177 6.31741 9.40446 6.28351C9.39122 6.2496 9.37132 6.21869 9.34594 6.19261C9.32055 6.16652 9.2902 6.14579 9.25666 6.13164C9.22313 6.11748 9.1871 6.11018 9.1507 6.11018C9.11431 6.11018 9.07828 6.11748 9.04475 6.13164C9.01121 6.14579 8.98086 6.16652 8.95547 6.19261C8.93009 6.21869 8.91019 6.2496 8.89695 6.28351C8.88371 6.31741 8.87739 6.35362 8.87838 6.39001V9.65547C8.87828 9.74757 8.84164 9.83588 8.77651 9.90101C8.71138 9.96614 8.62308 10.0028 8.53097 10.0029C8.49629 10.0028 8.46181 9.9977 8.42863 9.9876C8.38329 9.9738 8.34125 9.95089 8.30509 9.92025C8.26892 9.88962 8.2394 9.85192 8.21833 9.80947C8.21713 9.80686 8.21592 9.80424 8.21452 9.80183C8.208 9.78797 8.20249 9.77366 8.19803 9.75901C8.18794 9.72576 8.1828 9.69121 8.18275 9.65647V6.39001C8.18374 6.35362 8.17743 6.31741 8.16418 6.28351C8.15094 6.2496 8.13104 6.21869 8.10566 6.19261C8.08027 6.16652 8.04992 6.14579 8.01639 6.13164C7.98285 6.11748 7.94682 6.11018 7.91043 6.11018C7.87403 6.11018 7.838 6.11748 7.80447 6.13164C7.77094 6.14579 7.74058 6.16652 7.7152 6.19261C7.68981 6.21869 7.66991 6.2496 7.65667 6.28351C7.64343 6.31741 7.63712 6.35362 7.6381 6.39001V9.84345C7.63822 9.87352 7.6343 9.90348 7.62644 9.93251C7.62644 9.93432 7.62544 9.93633 7.62483 9.93814L7.62363 9.94277V9.94538C7.60671 9.99995 7.57665 10.0495 7.53609 10.0898C7.49553 10.13 7.44572 10.1597 7.39101 10.1762L7.38619 10.1776C7.33451 10.1923 7.28012 10.1948 7.2273 10.185C7.17448 10.1751 7.12467 10.1531 7.0818 10.1207C7.03892 10.0883 7.00415 10.0464 6.98022 9.9983C6.95628 9.95019 6.94384 9.89718 6.94388 9.84345V6.39001C6.94487 6.35362 6.93855 6.31741 6.92531 6.28351C6.91207 6.2496 6.89217 6.21869 6.86679 6.19261C6.8414 6.16652 6.81104 6.14579 6.77751 6.13164C6.74398 6.11748 6.70795 6.11018 6.67155 6.11018C6.63516 6.11018 6.59913 6.11748 6.5656 6.13164C6.53206 6.14579 6.50171 6.16652 6.47632 6.19261C6.45094 6.21869 6.43104 6.2496 6.4178 6.28351C6.40456 6.31741 6.39824 6.35362 6.39923 6.39001V9.47191C6.39946 9.5174 6.3907 9.56249 6.37345 9.60458C6.3562 9.64668 6.3308 9.68494 6.29871 9.71719C6.27693 9.7391 6.25224 9.75791 6.22532 9.77308L6.2205 9.7759C6.16919 9.80472 6.11127 9.81968 6.05242 9.81932C5.96031 9.81922 5.87201 9.78258 5.80688 9.71745C5.74175 9.65232 5.70511 9.56402 5.70501 9.47191V4.84554C5.70523 4.78935 5.68808 4.73447 5.6559 4.68841C5.62371 4.64235 5.57808 4.60737 5.52524 4.58826C5.4724 4.56915 5.41494 4.56684 5.36074 4.58166C5.30654 4.59648 5.25825 4.62769 5.22248 4.67103L4.32681 5.74423C4.2853 5.79432 4.23259 5.83392 4.17293 5.85984C4.11327 5.88576 4.04834 5.89726 3.98341 5.89341C3.92224 5.89069 3.86255 5.87373 3.80908 5.84389C3.75561 5.81405 3.70984 5.77215 3.6754 5.72152L3.66877 5.71106L3.66455 5.70463C3.62219 5.63535 3.60045 5.55544 3.60187 5.47426C3.6033 5.39307 3.62783 5.31398 3.67259 5.24623C3.77734 5.0876 3.87947 4.93541 3.9235 4.87288L4.0568 4.69737C4.50815 4.10206 4.97117 3.45487 5.47179 2.71903C5.54236 2.61549 5.61031 2.49788 5.68229 2.37342C5.86223 2.0616 6.06428 1.71096 6.38596 1.43372H9.46062C9.87479 1.76746 10.0953 2.26546 10.1167 2.91345Z" fill="#FF4314"/>
<path d="M7.61483 11.6528L5.5038 13.7638C5.03133 14.2062 4.52388 14.4018 3.99431 14.3469L1.82056 12.1725C1.78859 11.7483 1.89354 11.3569 1.98703 11.0091C2.02402 10.8705 2.0592 10.7397 2.08273 10.6166C2.24819 9.74485 2.37847 8.95995 2.48081 8.21667L2.51137 7.99853C2.52443 7.92394 2.55962 7.7442 2.59802 7.55622C2.6143 7.47671 2.6529 7.40348 2.7093 7.34512C2.76571 7.28676 2.83757 7.24568 2.91648 7.2267L2.93257 7.22328C2.99325 7.2113 3.05591 7.21378 3.11546 7.23051C3.17501 7.24724 3.22979 7.27775 3.27536 7.31958C3.32393 7.36276 3.36167 7.41676 3.38553 7.47721C3.40938 7.53767 3.41868 7.60289 3.41267 7.6676L3.28682 9.05987C3.28181 9.11559 3.29409 9.1715 3.32197 9.22C3.34984 9.2685 3.39198 9.30724 3.44265 9.33096C3.49331 9.35468 3.55005 9.36223 3.60515 9.35257C3.66026 9.34292 3.71105 9.31654 3.75064 9.27701L5.1596 7.86805V9.47183C5.15987 9.70839 5.25396 9.93518 5.42123 10.1025C5.5885 10.2697 5.8153 10.3638 6.05186 10.3641C6.13345 10.3642 6.21465 10.3529 6.29312 10.3305L7.61483 11.6528Z" fill="#FF4314"/>
<path d="M15.7404 12.638L12.5035 15.8749C12.4641 15.9144 12.4173 15.9457 12.3658 15.9671C12.3142 15.9884 12.259 15.9994 12.2032 15.9994C12.1475 15.9994 12.0922 15.9884 12.0407 15.9671C11.9892 15.9457 11.9424 15.9144 11.903 15.8749L11.8752 15.8472C11.8358 15.8078 11.8044 15.7609 11.7831 15.7094C11.7617 15.6579 11.7507 15.6026 11.7507 15.5468C11.7507 15.491 11.7617 15.4358 11.7831 15.3842C11.8044 15.3327 11.8358 15.2859 11.8752 15.2464L14.6381 12.4844L15.1127 12.0097C15.1522 11.9703 15.199 11.939 15.2505 11.9176C15.3021 11.8962 15.3573 11.8853 15.4131 11.8853C15.4689 11.8853 15.5241 11.8962 15.5757 11.9176C15.6272 11.939 15.674 11.9703 15.7135 12.0097L15.7412 12.0375C15.8206 12.1173 15.8651 12.2253 15.8649 12.3379C15.8648 12.4505 15.82 12.5584 15.7404 12.638Z" fill="#FF4314"/>
<path d="M14.1792 12.173L12.0059 14.3464C11.4763 14.4021 10.9688 14.2057 10.4966 13.7633L8.19275 11.4603L7.45288 10.7204C7.47781 10.716 7.50254 10.7104 7.52687 10.7036L7.53049 10.7026L7.53591 10.7011L7.54436 10.6985C7.54791 10.6976 7.5514 10.6965 7.55481 10.6951C7.73465 10.639 7.89219 10.5276 8.00496 10.3767C8.13803 10.4736 8.2953 10.5318 8.45939 10.5448C8.62348 10.5578 8.78798 10.5252 8.93468 10.4506C9.08138 10.3759 9.20457 10.2621 9.29061 10.1218C9.37665 9.98149 9.42218 9.82009 9.42217 9.65549V9.50651C9.60746 9.58481 9.81377 9.5982 10.0076 9.54451L10.0141 9.5429L10.0205 9.54089L10.0253 9.53948C10.2092 9.48454 10.3705 9.37171 10.4852 9.21776C10.5998 9.06381 10.6617 8.87697 10.6616 8.68502V7.68841L12.2499 9.27671C12.2895 9.31631 12.3403 9.34277 12.3955 9.35246C12.4506 9.36216 12.5074 9.35463 12.5581 9.3309C12.6088 9.30717 12.651 9.26839 12.6789 9.21984C12.7068 9.1713 12.719 9.11533 12.714 9.05957L12.5881 7.6673C12.582 7.6027 12.5913 7.53757 12.615 7.47719C12.6388 7.4168 12.6764 7.36285 12.7248 7.31968C12.7703 7.27799 12.8249 7.24756 12.8843 7.23087C12.9436 7.21417 13.0061 7.21168 13.0666 7.22358L13.0839 7.2274C13.1631 7.24624 13.2352 7.28736 13.2918 7.3459C13.3484 7.40443 13.387 7.47794 13.4032 7.55773C13.4418 7.74651 13.4769 7.92625 13.4896 7.99883L13.5196 8.21757C13.6211 8.95704 13.7514 9.74194 13.9177 10.6171C13.941 10.7402 13.9762 10.8712 14.0134 11.0102C14.1066 11.3576 14.2126 11.749 14.1792 12.173Z" fill="#FF4314"/>
</svg>
