<svg width="25" height="25" viewBox="0 0 25 25" fill="none" xmlns="http://www.w3.org/2000/svg">
<g clip-path="url(#clip0_269_1589)">
<path d="M23.847 18.1136L20.4977 14.7643C19.3015 13.5681 17.268 14.0467 16.7896 15.6016C16.4307 16.6782 15.2346 17.2763 14.158 17.037C11.7657 16.4389 8.53602 13.3289 7.93794 10.817C7.57908 9.74036 8.29679 8.54419 9.37334 8.18538C10.9284 7.70691 11.4068 5.67343 10.2107 4.47726L6.86138 1.12799C5.90445 0.290671 4.46905 0.290671 3.63173 1.12799L1.35901 3.40071C-0.913711 5.79305 1.59824 12.1327 7.22023 17.7547C12.8422 23.3767 19.1819 26.0083 21.5743 23.616L23.847 21.3432C24.6843 20.3863 24.6843 18.9509 23.847 18.1136Z" fill="#FF4314"/>
</g>
<defs>
<clipPath id="clip0_269_1589">
<rect width="24" height="24" fill="white" transform="translate(0.5 0.5)"/>
</clipPath>
</defs>
</svg>
