<svg width="25" height="25" viewBox="0 0 25 25" fill="none" xmlns="http://www.w3.org/2000/svg">
<path fill-rule="evenodd" clip-rule="evenodd" d="M12.5 0.5C5.8724 0.5 0.5 5.8724 0.5 12.5C0.5 19.1276 5.8724 24.5 12.5 24.5C19.1276 24.5 24.5 19.1276 24.5 12.5C24.5 5.8724 19.1276 0.5 12.5 0.5ZM8.3 9.5C8.3 8.94845 8.40864 8.4023 8.61971 7.89273C8.83078 7.38316 9.14015 6.92016 9.53015 6.53015C9.92016 6.14015 10.3832 5.83078 10.8927 5.61971C11.4023 5.40864 11.9484 5.3 12.5 5.3C13.0516 5.3 13.5977 5.40864 14.1073 5.61971C14.6168 5.83078 15.0798 6.14015 15.4698 6.53015C15.8599 6.92016 16.1692 7.38316 16.3803 7.89273C16.5914 8.4023 16.7 8.94845 16.7 9.5C16.7 10.6139 16.2575 11.6822 15.4698 12.4698C14.6822 13.2575 13.6139 13.7 12.5 13.7C11.3861 13.7 10.3178 13.2575 9.53015 12.4698C8.7425 11.6822 8.3 10.6139 8.3 9.5ZM20.0096 18.4808C19.111 19.6104 17.969 20.5226 16.6687 21.1492C15.3684 21.7759 13.9434 22.1009 12.5 22.1C11.0566 22.1009 9.63158 21.7759 8.33128 21.1492C7.03099 20.5226 5.88897 19.6104 4.9904 18.4808C6.9356 17.0852 9.59 16.1 12.5 16.1C15.41 16.1 18.0644 17.0852 20.0096 18.4808Z" fill="#FF4314"/>
</svg>
